<svg width="80" height="80" viewBox="0 0 80 80" fill="none" xmlns="http://www.w3.org/2000/svg">
<path d="M55.3032 57.2169C55.343 56.9321 55.3829 56.6473 55.4227 56.3625C55.1887 56.1728 54.9546 55.9831 54.7206 55.7934C54.6056 56.1808 54.5902 56.6443 54.3609 56.9445C49.0479 63.9014 43.656 70.7989 38.4216 77.8141C37.2111 79.4365 35.9518 80.249 33.7703 79.9326C22.488 79.9819 11.4107 79.9819 0.169904 79.9819C0.169904 71.7583 0.169904 63.8088 0.169904 55.5203C7.94606 55.5203 15.7762 55.5203 23.6063 55.5203C23.6637 55.336 23.7212 55.1516 23.7786 54.9673C21.8204 53.4462 19.8691 51.9161 17.9027 50.4056C12.4722 46.2341 7.00511 42.1088 1.63464 37.8614C0.859339 37.2482 0.0816857 36.0676 0.0729991 35.1424C-0.0326482 23.8905 0.00275066 12.6372 0.0189202 1.38435C0.0194657 1.00482 0.202938 0.625558 0.565228 0.316081C0.981683 0.304585 1.13405 0.223177 1.28642 0.141773C5.60264 0.0958273 9.91882 0.0159661 14.2351 0.0102759C27.4449 -0.00713401 40.6548 0.00240773 53.8646 0.00439538C67.2444 0.00640506 76.0878 6.77732 79.5839 19.7805C79.6532 39.8349 79.6532 59.7472 79.6532 79.7979C71.7248 79.7979 63.7663 79.7979 55.6153 79.606C55.3832 79.3386 55.3437 79.2632 55.3042 79.1877C55.3577 72.3078 55.4112 65.4279 55.4487 58.2031C55.3895 57.6444 55.3463 57.4306 55.3032 57.2169ZM55.4299 25.0911C54.8486 24.65 54.9037 24.7247 54.1886 24.4495C44.358 24.4495 34.5275 24.4495 24.6421 24.4495C24.6421 34.9378 24.6421 45.0911 24.6421 55.3033C34.9342 55.3033 45.0886 55.3033 55.3144 55.3033C55.3144 45.2147 55.3144 35.2865 55.4299 25.0911Z" fill="#4F26E9"/>
<path d="M1.14033 0.0978516C1.13407 0.223147 0.981702 0.304554 0.772705 0.282673C0.808791 0.137577 0.901504 0.0957704 1.14033 0.0978516Z" fill="#4F26E9"/>
<path d="M55.1994 57.2568C55.3462 57.4306 55.3893 57.6444 55.3688 58.0124C55.2353 57.8767 55.1655 57.5868 55.1994 57.2568Z" fill="#E3E3E3"/>
<path d="M55.2126 79.2454C55.3436 79.2632 55.3832 79.3386 55.4114 79.5413C55.3072 79.5468 55.2142 79.4249 55.2126 79.2454Z" fill="#E3E3E3"/>
</svg>
